<svg width="52" height="53" viewBox="0 0 52 53" fill="none" xmlns="http://www.w3.org/2000/svg">
<rect y="0.5" width="52" height="52" rx="26" fill="white"/>
<path d="M34.9091 19.7V17.3H32.3636V14.9H34.9091V12.5H37.4545V14.9H40V17.3H37.4545V19.7H34.9091ZM24.7273 32.3C26.3182 32.3 27.6707 31.7752 28.7847 30.7256C29.8988 29.676 30.4554 28.4008 30.4545 26.9C30.4537 25.3992 29.8971 24.1244 28.7847 23.0756C27.6724 22.0268 26.3199 21.5016 24.7273 21.5C23.1347 21.4984 21.7826 22.0236 20.6711 23.0756C19.5596 24.1276 19.0025 25.4024 19 26.9C18.9975 28.3976 19.5545 29.6728 20.6711 30.7256C21.7877 31.7784 23.1398 32.3032 24.7273 32.3ZM24.7273 29.9C23.8364 29.9 23.0833 29.61 22.4682 29.03C21.853 28.45 21.5455 27.74 21.5455 26.9C21.5455 26.06 21.853 25.35 22.4682 24.77C23.0833 24.19 23.8364 23.9 24.7273 23.9C25.6182 23.9 26.3712 24.19 26.9864 24.77C27.6015 25.35 27.9091 26.06 27.9091 26.9C27.9091 27.74 27.6015 28.45 26.9864 29.03C26.3712 29.61 25.6182 29.9 24.7273 29.9ZM14.5455 36.5C13.8455 36.5 13.2464 36.2652 12.7484 35.7956C12.2503 35.326 12.0008 34.7608 12 34.1V19.7C12 19.04 12.2495 18.4752 12.7484 18.0056C13.2473 17.536 13.8463 17.3008 14.5455 17.3H18.5545L20.9091 14.9H29.8182V19.7H32.3636V22.1H37.4545V34.1C37.4545 34.76 37.2055 35.3252 36.7075 35.7956C36.2094 36.266 35.6099 36.5008 34.9091 36.5H14.5455Z" fill="#063643"/>
</svg>
