<svg width="82" height="70" viewBox="0 0 82 70" fill="none" xmlns="http://www.w3.org/2000/svg">
<ellipse cx="40.9646" cy="34.9381" rx="40.5198" ry="34.9381" fill="#39B0FF"/>
<g clip-path="url(#clip0_492_926)">
<path d="M53.6189 41.1431H30.2405C29.8833 41.1431 29.5496 40.9909 29.3485 40.7364C26.264 36.8362 26.0274 29.3337 26.0095 28.22C26.0084 28.1763 26.0078 28.1322 26.0078 28.0883C26.0078 27.5748 26.49 27.1583 27.0855 27.1574H27.0877C27.6821 27.1574 28.1651 27.5719 28.1674 28.0847C28.1674 28.0909 28.1677 28.1459 28.1702 28.2434C28.2653 30.8921 30.794 33.0214 33.8886 33.0214C37.0434 33.0214 39.6099 30.8084 39.6099 28.0883C39.6099 27.5741 40.0935 27.1574 40.6895 27.1574H43.1696C43.7659 27.1574 44.2493 27.5741 44.2493 28.0883C44.2493 30.8084 46.8161 33.0214 49.9708 33.0214C53.0682 33.0214 55.5986 30.8883 55.6895 28.2361C55.6915 28.143 55.6921 28.0909 55.6921 28.0849C55.6943 27.5719 56.1771 27.1574 56.7717 27.1574H56.7737C57.3691 27.1583 57.8513 27.5748 57.8513 28.0883C57.8513 28.1324 57.8508 28.1763 57.8499 28.2202C57.8318 29.3337 57.5951 36.8365 54.5109 40.7367C54.3098 40.9909 53.9758 41.1431 53.6189 41.1431Z" fill="white"/>
<path d="M56.7738 27.1574C56.7733 27.1574 56.7727 27.1574 56.7719 27.1574C56.1775 27.1574 55.6945 27.572 55.6922 28.0847C55.6922 28.0909 55.692 28.143 55.6897 28.2361C55.5988 30.888 53.0684 33.0214 49.971 33.0214C46.8162 33.0214 44.2497 30.8085 44.2497 28.0883C44.2497 27.5741 43.7661 27.1574 43.1701 27.1574H41.9302V41.1428H53.6191C53.9763 41.1428 54.31 40.9906 54.5111 40.7365C57.5956 36.8363 57.8322 29.3335 57.8501 28.22C57.8512 28.1763 57.8518 28.1322 57.8518 28.0883C57.8515 27.5748 57.3693 27.1583 56.7738 27.1574Z" fill="white"/>
<path d="M41.9298 23.9809C40.0063 23.9809 38.4414 25.3303 38.4414 26.9888C38.4414 28.6473 40.0063 29.9964 41.9298 29.9964C43.8533 29.9964 45.4182 28.6473 45.4182 26.9888C45.4182 25.3303 43.8533 23.9809 41.9298 23.9809Z" fill="white"/>
<path d="M41.9302 23.9809V29.9967C43.8537 29.9964 45.4183 28.6473 45.4183 26.9888C45.4183 25.3303 43.8534 23.9812 41.9302 23.9809Z" fill="white"/>
<path d="M27.088 26.3022C25.1645 26.3022 23.5996 27.6515 23.5996 29.31C23.5996 30.9686 25.1645 32.3179 27.088 32.3179C29.0115 32.3179 30.5762 30.9686 30.5762 29.31C30.5762 27.6515 29.0115 26.3022 27.088 26.3022Z" fill="white"/>
<path d="M56.7718 26.3022C54.8483 26.3022 53.2837 27.6515 53.2837 29.31C53.2837 30.9683 54.8483 32.3177 56.7718 32.3177C58.6953 32.3177 60.2602 30.9683 60.2602 29.31C60.2602 27.6515 58.6953 26.3022 56.7718 26.3022Z" fill="white"/>
<path d="M53.6192 44.197H30.2408C29.6445 44.197 29.1611 43.7802 29.1611 43.2661V40.49H54.6988V43.2661C54.6988 43.7802 54.2155 44.197 53.6192 44.197Z" fill="white"/>
<path d="M41.9302 44.197H53.6191C54.2154 44.197 54.6987 43.7802 54.6987 43.2661V40.49H41.9302V44.197Z" fill="white"/>
</g>
<defs>
<clipPath id="clip0_492_926">
<rect width="36.6608" height="31.6106" fill="white" transform="translate(23.5996 18.3009)"/>
</clipPath>
</defs>
</svg>
