<svg width="82" height="70" viewBox="0 0 82 70" fill="none" xmlns="http://www.w3.org/2000/svg">
<ellipse cx="40.5198" cy="34.9381" rx="40.5198" ry="34.9381" fill="#39B0FF"/>
<path d="M54.9277 25.6645C53.2312 24.1346 50.9033 23.292 48.3724 23.292C46.4806 23.292 44.7481 23.7893 43.2229 24.7699C42.4532 25.2649 41.7559 25.8705 41.141 26.5773C40.5264 25.8707 39.8288 25.2649 39.0589 24.7699C37.5339 23.7893 35.8014 23.292 33.9096 23.292C31.3787 23.292 29.0506 24.1346 27.3541 25.6645C25.6778 27.1765 24.7544 29.2421 24.7544 31.4811C24.7544 33.7856 25.7873 35.8951 28.0049 38.1199C29.9887 40.1101 32.8399 42.1304 36.1417 44.4698C37.2692 45.2687 38.5471 46.1743 39.8741 47.1389C40.2246 47.3942 40.6745 47.5348 41.141 47.5348C41.6074 47.5348 42.0574 47.3942 42.4075 47.1393C43.7344 46.1745 45.0131 45.2685 46.1411 44.4692C49.4424 42.1302 52.2936 40.1101 54.2774 38.1197C56.495 35.8951 57.5277 33.7856 57.5277 31.4809C57.5277 29.2421 56.6043 27.1765 54.9277 25.6645Z" fill="white"/>
</svg>
