<svg width="100" height="100" viewBox="0 0 100 100" fill="none" xmlns="http://www.w3.org/2000/svg">
<g filter="url(#filter0_f_94_526)">
<circle cx="50" cy="50" r="25" fill="#25B4F8"/>
</g>
<path d="M66.483 37.5688C64.4656 35.5294 61.7404 34.4019 58.8092 34.3936C55.7923 34.3835 52.7688 35.5266 50.3464 37.5587C47.5913 35.1326 45.0991 33.9496 42.7523 33.9496C39.4748 33.9496 36.434 35.2404 34.2106 37.5638C32.5395 39.2349 31.3945 41.429 30.8982 43.9092C30.7496 44.6546 31.2326 45.3794 31.978 45.5285C32.7226 45.6762 33.4482 45.1941 33.5973 44.4486C33.9863 42.5033 34.8712 40.7954 36.1776 39.4886C37.8978 37.6913 40.2331 36.7019 42.7524 36.7019C44.5776 36.7019 46.7887 37.9317 49.3006 40.333C49.5823 40.6161 49.9524 40.7725 50.3428 40.7729C50.3433 40.7729 50.3442 40.7729 50.3446 40.7729C50.7341 40.7729 51.1042 40.6175 51.3863 40.3354C53.4143 38.3074 56.1069 37.1459 58.7767 37.1459C58.7855 37.1459 58.7937 37.1459 58.8019 37.1459C61.0267 37.1519 63.0066 37.9679 64.5111 39.4886C66.2762 41.3322 67.2483 43.7469 67.2483 46.289C67.2483 48.8331 66.2542 51.3079 64.5487 53.0519L50.3669 66.761L39.1216 55.8958C38.5752 55.3679 37.7041 55.3839 37.1757 55.9289C36.6477 56.4757 36.6629 57.3468 37.2092 57.8747L49.411 69.6637C49.6775 69.9215 50.0225 70.0504 50.3669 70.0504C50.7114 70.0504 51.0564 69.9215 51.3234 69.6642L66.4885 55.0037C68.7202 52.7225 70 49.5463 70 46.289C70 43.0344 68.7564 39.9431 66.483 37.5688Z" fill="#2F80ED"/>
<path d="M67.523 49.4543H56.422C56.0431 49.4543 55.6816 49.6098 55.422 49.885L51.2491 54.2974L46.4427 43.3947C46.2362 42.9263 45.7867 42.6112 45.2762 42.5768C44.7684 42.5442 44.278 42.7942 44.0105 43.2305L40.1931 49.4543H31.3762C30.616 49.4543 30 50.0703 30 50.8305C30 51.5906 30.616 52.2067 31.3762 52.2067H40.9629C41.4413 52.2067 41.8859 51.9581 42.1359 51.5498L44.9836 46.9076L49.5666 57.303C49.7524 57.725 50.1373 58.0255 50.5914 58.1039C50.6694 58.1172 50.7478 58.1241 50.8258 58.1241C51.201 58.1241 51.5638 57.9709 51.8258 57.6938L57.0148 52.2066H67.523C68.2831 52.2066 68.8992 51.5905 68.8992 50.8304C68.8991 50.0703 68.283 49.4543 67.523 49.4543Z" fill="#2F80ED"/>
<defs>
<filter id="filter0_f_94_526" x="0" y="0" width="100" height="100" filterUnits="userSpaceOnUse" color-interpolation-filters="sRGB">
<feFlood flood-opacity="0" result="BackgroundImageFix"/>
<feBlend mode="normal" in="SourceGraphic" in2="BackgroundImageFix" result="shape"/>
<feGaussianBlur stdDeviation="12.5" result="effect1_foregroundBlur_94_526"/>
</filter>
</defs>
</svg>
