<svg width="39" height="38" viewBox="0 0 39 38" fill="none" xmlns="http://www.w3.org/2000/svg">
<rect opacity="0.25" x="1.33984" y="0.75" width="36.3646" height="36.3646" rx="18.1823" stroke="white" stroke-width="1.5"/>
<path fill-rule="evenodd" clip-rule="evenodd" d="M16.1241 25.2431H13.2114V16.5051H16.1241V25.2431V25.2431Z" fill="white"/>
<path fill-rule="evenodd" clip-rule="evenodd" d="M14.6591 14.5634H14.6425C13.7733 14.5634 13.2114 13.9158 13.2114 13.1065C13.2114 12.2801 13.7905 11.6506 14.6762 11.6506C15.5619 11.6506 16.1073 12.2801 16.1241 13.1065C16.1241 13.9158 15.5619 14.5634 14.6591 14.5634V14.5634Z" fill="white"/>
<path fill-rule="evenodd" clip-rule="evenodd" d="M26.8038 25.2429H23.9417V20.6754C23.9417 19.5282 23.5275 18.7453 22.4914 18.7453C21.7006 18.7453 21.2296 19.2731 21.0227 19.7828C20.9471 19.9655 20.9285 20.22 20.9285 20.4752V25.2431H18.0659C18.0659 25.2431 18.1036 17.5069 18.0659 16.7058H20.9285V17.9151C21.3084 17.3338 21.9887 16.5051 23.5084 16.5051C25.3919 16.5051 26.8039 17.7256 26.8039 20.3479L26.8038 25.2429V25.2429Z" fill="white"/>
</svg>
