<svg width="70" height="60" viewBox="0 0 70 60" fill="none" xmlns="http://www.w3.org/2000/svg">
<path d="M45.1424 43.7386C43.657 44.4706 36.4457 43.7386 36.3675 44.6074C36.1414 47.1161 41.0553 47.9735 42.3822 48.2451C47.908 49.3762 52.3129 46.0687 58.7697 39.9491C65.4352 33.6321 70.5464 24.1936 69.9531 15.6819C69.1171 3.68003 58.4213 -2.42132 48.9032 0.896947C42.6732 3.06936 38.9425 6.58917 37.1172 8.74541C36.3882 9.60615 35.0787 9.60615 34.3503 8.74541C32.5258 6.58917 28.7944 3.06868 22.5643 0.896947C13.047 -2.42132 2.43072 4.00291 0.396154 15.3435C-2.05575 29.0075 7.05229 44.7253 22.7736 54.5063C26.7057 56.9523 38.7024 61.3753 44.7499 59.5837C48.6966 58.415 58.6968 50.4506 57.606 49.356C54.8631 46.6032 48.322 53.4986 43.4189 53.1622C38.8221 52.8461 35.793 52.0042 34.2259 49.6882C31.6797 45.9244 32.1987 40.9831 30.9654 41.399C27.9998 40.3994 30.007 48.0706 27.4935 46.5412C16.8766 40.0826 10.6974 29.5481 12.338 20.4035C13.685 12.8954 20.7137 8.6416 27.0147 10.839C30.7005 12.1237 33.0655 14.1215 34.3884 15.5511C35.1201 16.3411 36.3468 16.3411 37.0784 15.5511C38.4021 14.1222 40.767 12.1243 44.4522 10.839C50.7532 8.6416 57.7819 12.8954 59.1296 20.4035C60.1783 26.2474 58.0227 32.6554 53.5656 38.2081C51.6481 37.4721 47.3897 34.9424 46.149 36.8769C45.3986 38.0484 47.9569 38.8707 48.2752 39.7921C48.7467 41.1503 46.2721 43.1825 45.1424 43.7386Z" fill="url(#paint0_linear_1_245)"/>
<path opacity="0.48" d="M44.4415 56.2707C48.645 55.596 53.1797 51.051 57.6681 49.4643C57.6548 49.4232 57.6361 49.3854 57.606 49.3551C54.8631 46.6023 48.322 53.4977 43.4189 53.1614C38.822 52.8452 35.7929 52.0034 34.2259 49.6874C31.6797 45.9236 32.1987 40.9822 30.9654 41.3981C27.9998 40.3985 30.0069 48.0697 27.4935 46.5403C16.8766 40.0811 10.6974 29.5472 12.338 20.4026C13.685 12.8946 20.7136 8.64073 27.0146 10.8381C28.6599 11.4117 30.0284 12.1289 31.172 12.873C26.5137 9.39296 21.8928 6.47034 15.9543 7.98826C12.1059 8.97168 8.3558 13.0907 7.50907 17.0224C2.90623 38.4034 28.8037 58.7801 44.4415 56.2707Z" fill="url(#paint1_radial_1_245)"/>
<path opacity="0.48" d="M69.9531 15.6819C69.1171 3.68003 58.4213 -2.42132 48.9032 0.896947C45.725 2.00506 43.2008 3.46366 41.2445 4.91351C41.2766 5.12111 49.3119 1.99899 54.1027 3.26954C63.5652 5.77897 65.7255 14.6621 64.4059 23.1434C63.2435 30.6158 54.9741 42.8947 45.3377 46.3578C43.3941 47.0561 38.8388 46.132 37.0784 44.267C36.647 44.3378 36.3815 44.4443 36.3668 44.6067C36.1407 47.1155 41.0546 47.9728 42.3815 48.2445C47.9074 49.3755 52.3122 46.068 58.7691 39.9485C65.4352 33.6321 70.5457 24.1936 69.9531 15.6819Z" fill="url(#paint2_linear_1_245)"/>
<defs>
<linearGradient id="paint0_linear_1_245" x1="8.25256" y1="51.2194" x2="60.9148" y2="-1.03576" gradientUnits="userSpaceOnUse">
<stop stop-color="#1376F8"/>
<stop offset="0.511" stop-color="#3ABBF8"/>
<stop offset="1" stop-color="#4F6DF8"/>
</linearGradient>
<radialGradient id="paint1_radial_1_245" cx="0" cy="0" r="1" gradientUnits="userSpaceOnUse" gradientTransform="translate(36.5586 27.9857) rotate(-45.2224) scale(34.2031 34.2021)">
<stop stop-color="#E6F6FE"/>
<stop offset="1" stop-color="#31B9F9"/>
</radialGradient>
<linearGradient id="paint2_linear_1_245" x1="14.8536" y1="57.8717" x2="67.5156" y2="5.61675" gradientUnits="userSpaceOnUse">
<stop stop-color="#447FF7"/>
<stop offset="0.441" stop-color="#6ACBFA"/>
<stop offset="1" stop-color="#4E6FF8"/>
</linearGradient>
</defs>
</svg>
