<svg width="100" height="100" viewBox="0 0 100 100" fill="none" xmlns="http://www.w3.org/2000/svg">
<g filter="url(#filter0_f_94_525)">
<circle cx="50" cy="49.9999" r="25" fill="#25B4F8"/>
</g>
<g clip-path="url(#clip0_94_525)">
<path d="M59.2906 25.9999H40.7552C39.9968 25.9999 39.3822 26.6145 39.3822 27.3728V34.1005C39.3822 34.8589 39.9968 35.4735 40.7552 35.4735H59.2906C60.049 35.4735 60.6636 34.8589 60.6636 34.1005V27.3728C60.6636 26.6145 60.049 25.9999 59.2906 25.9999ZM57.9177 32.7275H42.1281V28.7459H57.9176V32.7275H57.9177Z" fill="#2F80ED"/>
<path d="M57.3227 34.1466H54.5767V40.4624H57.3227V34.1466Z" fill="#2F80ED"/>
<path d="M45.4234 34.1466H42.6774V40.4624H45.4234V34.1466Z" fill="#2F80ED"/>
<path d="M59.9771 39.0891H40.0229C38.7611 39.0891 37.7345 40.1157 37.7345 41.3775V63.7115C37.7345 64.9733 38.7611 65.9999 40.0229 65.9999H59.9771C61.2389 65.9999 62.2654 64.9733 62.2654 63.7115V41.3775C62.2654 40.1157 61.2389 39.0891 59.9771 39.0891ZM59.5194 63.2539H40.4805V41.8351H59.5194V63.2539Z" fill="#2F80ED"/>
<path d="M50 46.2744C49.2416 46.2744 48.627 46.889 48.627 47.6474V57.4414C48.627 58.1998 49.2416 58.8144 50 58.8144C50.7583 58.8144 51.373 58.1998 51.373 57.4414V47.6474C51.373 46.889 50.7583 46.2744 50 46.2744Z" fill="#2F80ED"/>
<path d="M54.897 51.1715H45.1029C44.3446 51.1715 43.73 51.7861 43.73 52.5445C43.73 53.3028 44.3446 53.9174 45.1029 53.9174H54.897C55.6558 53.9174 56.27 53.3028 56.27 52.5445C56.27 51.7861 55.6554 51.1715 54.897 51.1715Z" fill="#2F80ED"/>
</g>
<defs>
<filter id="filter0_f_94_525" x="0" y="-0.00012207" width="100" height="100" filterUnits="userSpaceOnUse" color-interpolation-filters="sRGB">
<feFlood flood-opacity="0" result="BackgroundImageFix"/>
<feBlend mode="normal" in="SourceGraphic" in2="BackgroundImageFix" result="shape"/>
<feGaussianBlur stdDeviation="12.5" result="effect1_foregroundBlur_94_525"/>
</filter>
<clipPath id="clip0_94_525">
<rect width="40" height="40" fill="white" transform="translate(30 25.9999)"/>
</clipPath>
</defs>
</svg>
