<svg width="100" height="100" viewBox="0 0 100 100" fill="none" xmlns="http://www.w3.org/2000/svg">
<g filter="url(#filter0_f_94_527)">
<circle cx="50" cy="49.9999" r="25" fill="#25B4F8"/>
</g>
<circle opacity="0.1" cx="48" cy="50" r="40" fill="#2F80ED"/>
<g clip-path="url(#clip0_94_527)">
<path d="M61.9711 43.24L54.7594 36.0283C54.268 35.5373 53.473 35.5369 52.9816 36.0274L34.4073 54.5599L36.1842 56.3411L53.8693 38.6958L59.304 44.131L41.6592 61.8157L43.4399 63.5926L61.9724 45.0178C62.4625 44.5263 62.4621 43.7306 61.9711 43.24Z" fill="#2F80ED"/>
<path d="M64.1099 35.6515L62.349 33.8905C61.9389 33.4804 61.3024 33.4037 60.8068 33.7047L54.7272 37.3944L56.0324 39.545L61.268 36.3672L61.6328 36.7323L58.4554 41.9679L60.606 43.2732L64.2957 37.1935C64.5967 36.698 64.52 36.0611 64.1099 35.6515Z" fill="#2F80ED"/>
<path d="M45.7867 64.1633L33.837 52.2136C33.346 51.7222 32.5494 51.7222 32.0584 52.2136C31.567 52.7047 31.567 53.5013 32.0584 53.9922L44.0081 65.9419C44.2534 66.1876 44.5754 66.3104 44.8974 66.3104C45.219 66.3104 45.5415 66.1875 45.7867 65.9419C46.2781 65.451 46.2781 64.6543 45.7867 64.1633Z" fill="#2F80ED"/>
<path d="M45.4726 53.1787L33.7337 64.9609L35.5155 66.7362L47.2545 54.954L45.4726 53.1787Z" fill="#2F80ED"/>
<path d="M43.0011 50.707L31.2621 62.4893L33.0439 64.2646L44.7829 52.4823L43.0011 50.707Z" fill="#2F80ED"/>
<path d="M38.4491 67.8529L30.1472 59.5506C29.6558 59.0595 28.8592 59.0588 28.3682 59.5506C27.8772 60.0416 27.8772 60.8377 28.3682 61.3292L36.67 69.6315C36.9157 69.8772 37.2378 70 37.5597 70C37.8813 70 38.2038 69.8771 38.449 69.6315C38.9401 69.1405 38.9401 68.3443 38.4491 67.8529Z" fill="#2F80ED"/>
<path d="M67.6315 30.3687C67.1401 29.8773 66.3443 29.8773 65.8529 30.3687L61.4503 34.7712C60.9589 35.2622 60.9589 36.0588 61.4503 36.5498C61.696 36.7955 62.0176 36.9183 62.3396 36.9183C62.6617 36.9183 62.9836 36.7954 63.2289 36.5498L67.6314 32.1473C68.1229 31.6563 68.1229 30.8597 67.6315 30.3687Z" fill="#2F80ED"/>
<path d="M42.5997 48.3131L40.8208 50.0919L47.9066 57.1776L49.6854 55.3988L42.5997 48.3131Z" fill="#2F80ED"/>
</g>
<defs>
<filter id="filter0_f_94_527" x="0" y="-0.00012207" width="100" height="100" filterUnits="userSpaceOnUse" color-interpolation-filters="sRGB">
<feFlood flood-opacity="0" result="BackgroundImageFix"/>
<feBlend mode="normal" in="SourceGraphic" in2="BackgroundImageFix" result="shape"/>
<feGaussianBlur stdDeviation="12.5" result="effect1_foregroundBlur_94_527"/>
</filter>
<clipPath id="clip0_94_527">
<rect width="40" height="40" fill="white" transform="translate(28 30)"/>
</clipPath>
</defs>
</svg>
