<svg width="68" height="68" viewBox="0 0 68 68" fill="none" xmlns="http://www.w3.org/2000/svg">
<rect width="68" height="68" rx="5" fill="#18A0FB" fill-opacity="0.1"/>
<path d="M51.1862 33.7091C50.8973 33.7091 50.6631 33.9545 50.6631 34.2571V47.8934C50.6631 48.5424 50.1591 49.0704 49.5397 49.0704H18.1696C17.5501 49.0704 17.0462 48.5424 17.0462 47.8934V45.7244C17.0462 45.4218 16.812 45.1764 16.5231 45.1764C16.2342 45.1764 16 45.4218 16 45.7244V47.8934C16 49.1467 16.9733 50.1664 18.1696 50.1664H49.5396C50.7359 50.1664 51.7092 49.1467 51.7092 47.8934V34.2571C51.7093 33.9545 51.4752 33.7091 51.1862 33.7091Z" fill="#18A0FB"/>
<path d="M49.5397 23.0981H49.1585V21.6842H50.4888C50.7777 21.6842 51.0118 21.4389 51.0118 21.1363C51.0118 20.8336 50.7777 20.5883 50.4888 20.5883H49.1585V20.0403C49.1585 19.7376 48.9244 19.4923 48.6354 19.4923C48.3465 19.4923 48.1123 19.7376 48.1123 20.0403V20.5883H44.4934V20.0403C44.4934 19.7376 44.2593 19.4923 43.9703 19.4923C43.6814 19.4923 43.4473 19.7376 43.4473 20.0403V20.5883H39.8283V20.0403C39.8283 19.7376 39.5942 19.4923 39.3053 19.4923C39.0163 19.4923 38.7822 19.7376 38.7822 20.0403V20.5883H36.8029C36.5547 19.1194 35.3273 18 33.8549 18C32.3825 18 31.1551 19.1193 30.9069 20.5883H28.927V20.0403C28.927 19.7376 28.6928 19.4923 28.4039 19.4923C28.115 19.4923 27.8808 19.7376 27.8808 20.0403V20.5883H24.2619V20.0403C24.2619 19.7376 24.0277 19.4923 23.7388 19.4923C23.4499 19.4923 23.2157 19.7376 23.2157 20.0403V20.5883H19.5969V20.0403C19.5969 19.7376 19.3627 19.4923 19.0739 19.4923C18.785 19.4923 18.5508 19.7376 18.5508 20.0403V20.5883H17.2205C16.9316 20.5883 16.6974 20.8336 16.6974 21.1363C16.6974 21.4389 16.9316 21.6842 17.2205 21.6842H18.5508V23.0981H18.1697C16.9733 23.0981 16 24.1177 16 25.3711V43.1946C16 43.4973 16.2342 43.7426 16.5231 43.7426C16.812 43.7426 17.0462 43.4973 17.0462 43.1946V28.7241H22.1776C22.4665 28.7241 22.7007 28.4787 22.7007 28.1761C22.7007 27.8735 22.4665 27.6281 22.1776 27.6281H17.0462V25.3711C17.0462 24.7221 17.5501 24.194 18.1696 24.194H18.5507V24.742C18.5507 25.0447 18.7849 25.29 19.0738 25.29C19.3627 25.29 19.5969 25.0447 19.5969 24.742V24.194H23.2158V24.742C23.2158 25.0447 23.45 25.29 23.7389 25.29C24.0278 25.29 24.262 25.0447 24.262 24.742V24.194H27.8809V24.742C27.8809 25.0447 28.1151 25.29 28.404 25.29C28.6928 25.29 28.927 25.0447 28.927 24.742V24.194H31.8482C32.3954 24.7108 33.1145 25.0032 33.8549 25.0032C34.5954 25.0032 35.3145 24.7108 35.8616 24.194H38.7821V24.742C38.7821 25.0447 39.0162 25.29 39.3052 25.29C39.5941 25.29 39.8283 25.0447 39.8283 24.742V24.194H43.4472V24.742C43.4472 25.0447 43.6813 25.29 43.9703 25.29C44.2592 25.29 44.4934 25.0447 44.4934 24.742V24.194H48.1123V24.742C48.1123 25.0447 48.3464 25.29 48.6354 25.29C48.9243 25.29 49.1584 25.0447 49.1584 24.742V24.194H49.5396C50.1591 24.194 50.663 24.7221 50.663 25.3711V27.6281H24.5775C24.2886 27.6281 24.0544 27.8735 24.0544 28.1761C24.0544 28.4787 24.2886 28.7241 24.5775 28.7241H50.6631V31.7139C50.6631 32.0166 50.8973 32.2619 51.1862 32.2619C51.4752 32.2619 51.7093 32.0166 51.7093 31.7139V25.3711C51.7093 24.1177 50.736 23.0981 49.5397 23.0981V23.0981ZM19.5969 23.0981V21.6842H23.2159V23.0981H19.5969ZM24.262 23.0981V21.6842H27.8809V23.0981H24.262ZM35.6493 23.0981C35.5056 23.0981 35.3682 23.16 35.2695 23.2693C34.8977 23.6807 34.3954 23.9072 33.855 23.9072C33.3145 23.9072 32.8122 23.6806 32.4405 23.2693C32.3417 23.16 32.2043 23.0981 32.0607 23.0981H28.9271V21.6842H31.3844C31.6732 21.6842 31.9074 21.4389 31.9074 21.1363C31.9074 20.0113 32.7811 19.096 33.855 19.096C34.9289 19.096 35.8025 20.0112 35.8025 21.1363C35.8025 21.4389 36.0367 21.6842 36.3256 21.6842H38.7822V23.0981H35.6493ZM39.8283 23.0981V21.6842H43.4473V23.0981H39.8283ZM44.4934 23.0981V21.6842H48.1123V23.0981H44.4934Z" fill="#18A0FB"/>
<path d="M19.296 35.1419H22.6681C22.957 35.1419 23.1912 34.8966 23.1912 34.5939V31.0613C23.1912 30.7587 22.957 30.5133 22.6681 30.5133H19.296C19.0072 30.5133 18.7729 30.7587 18.7729 31.0613V34.5939C18.7729 34.8966 19.0071 35.1419 19.296 35.1419ZM19.8191 31.6093H22.145V34.0459H19.8191V31.6093Z" fill="#18A0FB"/>
<path d="M45.0436 35.1419H48.4157C48.7047 35.1419 48.9388 34.8966 48.9388 34.5939V31.0613C48.9388 30.7587 48.7047 30.5133 48.4157 30.5133H45.0436C44.7546 30.5133 44.5205 30.7587 44.5205 31.0613V34.5939C44.5205 34.8966 44.7546 35.1419 45.0436 35.1419ZM45.5667 31.6093H47.8927V34.0459H45.5667V31.6093Z" fill="#18A0FB"/>
<path d="M32.1681 35.1419H35.5402C35.8291 35.1419 36.0633 34.8966 36.0633 34.5939V31.0613C36.0633 30.7587 35.8291 30.5133 35.5402 30.5133H32.1681C31.8792 30.5133 31.645 30.7587 31.645 31.0613V34.5939C31.645 34.8966 31.8792 35.1419 32.1681 35.1419V35.1419ZM32.6912 31.6093H35.0171V34.0459H32.6912V31.6093Z" fill="#18A0FB"/>
<path d="M25.7321 35.1419H29.1042C29.393 35.1419 29.6272 34.8966 29.6272 34.5939V31.0613C29.6272 30.7587 29.393 30.5133 29.1042 30.5133H25.7321C25.4432 30.5133 25.209 30.7587 25.209 31.0613V34.5939C25.209 34.8966 25.4432 35.1419 25.7321 35.1419ZM26.2552 31.6093H28.5811V34.0459H26.2552V31.6093Z" fill="#18A0FB"/>
<path d="M38.6061 35.1419H41.9782C42.2671 35.1419 42.5013 34.8966 42.5013 34.5939V31.0613C42.5013 30.7587 42.2671 30.5133 41.9782 30.5133H38.6061C38.3171 30.5133 38.083 30.7587 38.083 31.0613V34.5939C38.083 34.8966 38.3172 35.1419 38.6061 35.1419ZM39.1292 31.6093H41.4551V34.0459H39.1292V31.6093Z" fill="#18A0FB"/>
<path d="M18.772 46.6057C18.772 46.9083 19.0062 47.1536 19.2951 47.1536H22.6671C22.956 47.1536 23.1902 46.9083 23.1902 46.6057V43.073C23.1902 42.7704 22.956 42.525 22.6671 42.525H19.2951C19.0062 42.525 18.772 42.7704 18.772 43.073V46.6057ZM19.8181 43.621H22.1441V46.0577H19.8181V43.621Z" fill="#18A0FB"/>
<path d="M44.5195 46.6057C44.5195 46.9083 44.7537 47.1536 45.0426 47.1536H48.4148C48.7037 47.1536 48.9379 46.9083 48.9379 46.6057V43.073C48.9379 42.7704 48.7037 42.525 48.4148 42.525H45.0426C44.7537 42.525 44.5195 42.7704 44.5195 43.073V46.6057ZM45.5657 43.621H47.8917V46.0577H45.5657V43.621Z" fill="#18A0FB"/>
<path d="M31.644 46.6057C31.644 46.9083 31.8782 47.1536 32.1671 47.1536H35.5392C35.8282 47.1536 36.0623 46.9083 36.0623 46.6057V43.073C36.0623 42.7704 35.8282 42.525 35.5392 42.525H32.1671C31.8782 42.525 31.644 42.7704 31.644 43.073V46.6057ZM32.6902 43.621H35.0161V46.0577H32.6902V43.621Z" fill="#18A0FB"/>
<path d="M25.2075 46.6057C25.2075 46.9083 25.4417 47.1536 25.7306 47.1536H29.1027C29.3916 47.1536 29.6258 46.9083 29.6258 46.6057V43.073C29.6258 42.7704 29.3916 42.525 29.1027 42.525H25.7306C25.4417 42.525 25.2075 42.7704 25.2075 43.073V46.6057ZM26.2537 43.621H28.5796V46.0577H26.2537V43.621Z" fill="#18A0FB"/>
<path d="M38.082 46.6057C38.082 46.9083 38.3162 47.1536 38.6051 47.1536H41.9772C42.2662 47.1536 42.5003 46.9083 42.5003 46.6057V43.073C42.5003 42.7704 42.2662 42.525 41.9772 42.525H38.6051C38.3162 42.525 38.082 42.7704 38.082 43.073V46.6057ZM39.1282 43.621H41.4541V46.0577H39.1282V43.621Z" fill="#18A0FB"/>
<path d="M18.772 40.5997C18.772 40.9023 19.0062 41.1477 19.2951 41.1477H22.6671C22.956 41.1477 23.1902 40.9023 23.1902 40.5997V37.067C23.1902 36.7644 22.956 36.519 22.6671 36.519H19.2951C19.0062 36.519 18.772 36.7644 18.772 37.067V40.5997ZM19.8181 37.615H22.1441V40.0517H19.8181V37.615Z" fill="#18A0FB"/>
<path d="M44.5195 40.5997C44.5195 40.9023 44.7537 41.1477 45.0426 41.1477H48.4148C48.7037 41.1477 48.9379 40.9023 48.9379 40.5997V37.067C48.9379 36.7644 48.7037 36.519 48.4148 36.519H45.0426C44.7537 36.519 44.5195 36.7644 44.5195 37.067V40.5997ZM45.5657 37.615H47.8917V40.0517H45.5657V37.615Z" fill="#18A0FB"/>
<path d="M31.644 40.5997C31.644 40.9023 31.8782 41.1477 32.1671 41.1477H35.5392C35.8282 41.1477 36.0623 40.9023 36.0623 40.5997V37.067C36.0623 36.7644 35.8282 36.519 35.5392 36.519H32.1671C31.8782 36.519 31.644 36.7644 31.644 37.067V40.5997ZM32.6902 37.615H35.0161V40.0517H32.6902V37.615Z" fill="#18A0FB"/>
<path d="M25.2075 40.5997C25.2075 40.9023 25.4417 41.1477 25.7306 41.1477H29.1027C29.3916 41.1477 29.6258 40.9023 29.6258 40.5997V37.067C29.6258 36.7644 29.3916 36.519 29.1027 36.519H25.7306C25.4417 36.519 25.2075 36.7644 25.2075 37.067V40.5997ZM26.2537 37.615H28.5796V40.0517H26.2537V37.615Z" fill="#18A0FB"/>
<path d="M38.082 40.5997C38.082 40.9023 38.3162 41.1477 38.6051 41.1477H41.9772C42.2662 41.1477 42.5003 40.9023 42.5003 40.5997V37.067C42.5003 36.7644 42.2662 36.519 41.9772 36.519H38.6051C38.3162 36.519 38.082 36.7644 38.082 37.067V40.5997ZM39.1282 37.615H41.4541V40.0517H39.1282V37.615Z" fill="#18A0FB"/>
</svg>
