<svg width="68" height="68" viewBox="0 0 68 68" fill="none" xmlns="http://www.w3.org/2000/svg">
<rect width="68" height="68" rx="5" fill="#FFF6F2"/>
<path d="M51.1862 33.709C50.8973 33.709 50.6631 33.9543 50.6631 34.257V47.8933C50.6631 48.5423 50.1591 49.0703 49.5397 49.0703H18.1696C17.5501 49.0703 17.0462 48.5423 17.0462 47.8933V45.7243C17.0462 45.4217 16.812 45.1763 16.5231 45.1763C16.2342 45.1763 16 45.4217 16 45.7243V47.8933C16 49.1466 16.9733 50.1662 18.1696 50.1662H49.5396C50.7359 50.1662 51.7092 49.1466 51.7092 47.8933V34.257C51.7093 33.9543 51.4752 33.709 51.1862 33.709Z" fill="#FFA873"/>
<path d="M49.5397 23.0981H49.1585V21.6842H50.4888C50.7777 21.6842 51.0118 21.4389 51.0118 21.1363C51.0118 20.8336 50.7777 20.5883 50.4888 20.5883H49.1585V20.0403C49.1585 19.7376 48.9244 19.4923 48.6354 19.4923C48.3465 19.4923 48.1123 19.7376 48.1123 20.0403V20.5883H44.4934V20.0403C44.4934 19.7376 44.2593 19.4923 43.9703 19.4923C43.6814 19.4923 43.4473 19.7376 43.4473 20.0403V20.5883H39.8283V20.0403C39.8283 19.7376 39.5942 19.4923 39.3053 19.4923C39.0163 19.4923 38.7822 19.7376 38.7822 20.0403V20.5883H36.8029C36.5547 19.1194 35.3273 18 33.8549 18C32.3825 18 31.1551 19.1193 30.9069 20.5883H28.927V20.0403C28.927 19.7376 28.6928 19.4923 28.4039 19.4923C28.115 19.4923 27.8808 19.7376 27.8808 20.0403V20.5883H24.2619V20.0403C24.2619 19.7376 24.0277 19.4923 23.7388 19.4923C23.4499 19.4923 23.2157 19.7376 23.2157 20.0403V20.5883H19.5969V20.0403C19.5969 19.7376 19.3627 19.4923 19.0739 19.4923C18.785 19.4923 18.5508 19.7376 18.5508 20.0403V20.5883H17.2205C16.9316 20.5883 16.6974 20.8336 16.6974 21.1363C16.6974 21.4389 16.9316 21.6842 17.2205 21.6842H18.5508V23.0981H18.1697C16.9733 23.0981 16 24.1177 16 25.3711V43.1946C16 43.4973 16.2342 43.7426 16.5231 43.7426C16.812 43.7426 17.0462 43.4973 17.0462 43.1946V28.7241H22.1776C22.4665 28.7241 22.7007 28.4787 22.7007 28.1761C22.7007 27.8735 22.4665 27.6281 22.1776 27.6281H17.0462V25.3711C17.0462 24.7221 17.5501 24.194 18.1696 24.194H18.5507V24.742C18.5507 25.0447 18.7849 25.29 19.0738 25.29C19.3627 25.29 19.5969 25.0447 19.5969 24.742V24.194H23.2158V24.742C23.2158 25.0447 23.45 25.29 23.7389 25.29C24.0278 25.29 24.262 25.0447 24.262 24.742V24.194H27.8809V24.742C27.8809 25.0447 28.1151 25.29 28.404 25.29C28.6928 25.29 28.927 25.0447 28.927 24.742V24.194H31.8482C32.3954 24.7108 33.1145 25.0032 33.8549 25.0032C34.5954 25.0032 35.3145 24.7108 35.8616 24.194H38.7821V24.742C38.7821 25.0447 39.0162 25.29 39.3052 25.29C39.5941 25.29 39.8283 25.0447 39.8283 24.742V24.194H43.4472V24.742C43.4472 25.0447 43.6813 25.29 43.9703 25.29C44.2592 25.29 44.4934 25.0447 44.4934 24.742V24.194H48.1123V24.742C48.1123 25.0447 48.3464 25.29 48.6354 25.29C48.9243 25.29 49.1584 25.0447 49.1584 24.742V24.194H49.5396C50.1591 24.194 50.663 24.7221 50.663 25.3711V27.6281H24.5775C24.2886 27.6281 24.0544 27.8735 24.0544 28.1761C24.0544 28.4787 24.2886 28.7241 24.5775 28.7241H50.6631V31.7139C50.6631 32.0166 50.8973 32.2619 51.1862 32.2619C51.4752 32.2619 51.7093 32.0166 51.7093 31.7139V25.3711C51.7093 24.1177 50.736 23.0981 49.5397 23.0981V23.0981ZM19.5969 23.0981V21.6842H23.2159V23.0981H19.5969ZM24.262 23.0981V21.6842H27.8809V23.0981H24.262ZM35.6493 23.0981C35.5056 23.0981 35.3682 23.16 35.2695 23.2693C34.8977 23.6807 34.3954 23.9072 33.855 23.9072C33.3145 23.9072 32.8122 23.6806 32.4405 23.2693C32.3417 23.16 32.2043 23.0981 32.0607 23.0981H28.9271V21.6842H31.3844C31.6732 21.6842 31.9074 21.4389 31.9074 21.1363C31.9074 20.0113 32.7811 19.096 33.855 19.096C34.9289 19.096 35.8025 20.0112 35.8025 21.1363C35.8025 21.4389 36.0367 21.6842 36.3256 21.6842H38.7822V23.0981H35.6493ZM39.8283 23.0981V21.6842H43.4473V23.0981H39.8283ZM44.4934 23.0981V21.6842H48.1123V23.0981H44.4934Z" fill="#FFA873"/>
<path d="M19.2955 35.142H22.6676C22.9565 35.142 23.1907 34.8967 23.1907 34.5941V31.0614C23.1907 30.7588 22.9565 30.5134 22.6676 30.5134H19.2955C19.0067 30.5134 18.7725 30.7588 18.7725 31.0614V34.5941C18.7725 34.8967 19.0066 35.142 19.2955 35.142ZM19.8186 31.6094H22.1445V34.0461H19.8186V31.6094Z" fill="#FFA873"/>
<path d="M45.0431 35.142H48.4153C48.7042 35.142 48.9383 34.8967 48.9383 34.5941V31.0614C48.9383 30.7588 48.7042 30.5134 48.4153 30.5134H45.0431C44.7542 30.5134 44.52 30.7588 44.52 31.0614V34.5941C44.52 34.8967 44.7542 35.142 45.0431 35.142ZM45.5662 31.6094H47.8922V34.0461H45.5662V31.6094Z" fill="#FFA873"/>
<path d="M32.1676 35.142H35.5397C35.8287 35.142 36.0628 34.8967 36.0628 34.5941V31.0614C36.0628 30.7588 35.8287 30.5134 35.5397 30.5134H32.1676C31.8787 30.5134 31.6445 30.7588 31.6445 31.0614V34.5941C31.6445 34.8967 31.8787 35.142 32.1676 35.142V35.142ZM32.6907 31.6094H35.0166V34.0461H32.6907V31.6094Z" fill="#FFA873"/>
<path d="M25.7316 35.142H29.1037C29.3925 35.142 29.6267 34.8967 29.6267 34.5941V31.0614C29.6267 30.7588 29.3925 30.5134 29.1037 30.5134H25.7316C25.4427 30.5134 25.2085 30.7588 25.2085 31.0614V34.5941C25.2085 34.8967 25.4427 35.142 25.7316 35.142ZM26.2547 31.6094H28.5806V34.0461H26.2547V31.6094Z" fill="#FFA873"/>
<path d="M38.6056 35.142H41.9777C42.2666 35.142 42.5008 34.8967 42.5008 34.5941V31.0614C42.5008 30.7588 42.2666 30.5134 41.9777 30.5134H38.6056C38.3167 30.5134 38.0825 30.7588 38.0825 31.0614V34.5941C38.0825 34.8967 38.3167 35.142 38.6056 35.142ZM39.1287 31.6094H41.4546V34.0461H39.1287V31.6094Z" fill="#FFA873"/>
<path d="M18.7715 46.6055C18.7715 46.9082 19.0057 47.1535 19.2946 47.1535H22.6667C22.9555 47.1535 23.1897 46.9082 23.1897 46.6055V43.0729C23.1897 42.7703 22.9555 42.5249 22.6667 42.5249H19.2946C19.0057 42.5249 18.7715 42.7703 18.7715 43.0729V46.6055ZM19.8177 43.6209H22.1436V46.0575H19.8177V43.6209Z" fill="#FFA873"/>
<path d="M44.519 46.6055C44.519 46.9082 44.7532 47.1535 45.0421 47.1535H48.4143C48.7032 47.1535 48.9374 46.9082 48.9374 46.6055V43.0729C48.9374 42.7703 48.7032 42.5249 48.4143 42.5249H45.0421C44.7532 42.5249 44.519 42.7703 44.519 43.0729V46.6055ZM45.5652 43.6209H47.8912V46.0575H45.5652V43.6209Z" fill="#FFA873"/>
<path d="M31.6436 46.6055C31.6436 46.9082 31.8778 47.1535 32.1666 47.1535H35.5387C35.8277 47.1535 36.0618 46.9082 36.0618 46.6055V43.0729C36.0618 42.7703 35.8277 42.5249 35.5387 42.5249H32.1666C31.8778 42.5249 31.6436 42.7703 31.6436 43.0729V46.6055ZM32.6897 43.6209H35.0156V46.0575H32.6897V43.6209Z" fill="#FFA873"/>
<path d="M25.2075 46.6055C25.2075 46.9082 25.4417 47.1535 25.7306 47.1535H29.1027C29.3916 47.1535 29.6258 46.9082 29.6258 46.6055V43.0729C29.6258 42.7703 29.3916 42.5249 29.1027 42.5249H25.7306C25.4417 42.5249 25.2075 42.7703 25.2075 43.0729V46.6055ZM26.2537 43.6209H28.5796V46.0575H26.2537V43.6209Z" fill="#FFA873"/>
<path d="M38.0815 46.6055C38.0815 46.9082 38.3157 47.1535 38.6046 47.1535H41.9767C42.2657 47.1535 42.4998 46.9082 42.4998 46.6055V43.0729C42.4998 42.7703 42.2657 42.5249 41.9767 42.5249H38.6046C38.3157 42.5249 38.0815 42.7703 38.0815 43.0729V46.6055ZM39.1277 43.6209H41.4536V46.0575H39.1277V43.6209Z" fill="#FFA873"/>
<path d="M18.7715 40.5999C18.7715 40.9026 19.0057 41.1479 19.2946 41.1479H22.6667C22.9555 41.1479 23.1897 40.9026 23.1897 40.5999V37.0673C23.1897 36.7646 22.9555 36.5193 22.6667 36.5193H19.2946C19.0057 36.5193 18.7715 36.7646 18.7715 37.0673V40.5999ZM19.8177 37.6153H22.1436V40.0519H19.8177V37.6153Z" fill="#FFA873"/>
<path d="M44.519 40.5999C44.519 40.9026 44.7532 41.1479 45.0421 41.1479H48.4143C48.7032 41.1479 48.9374 40.9026 48.9374 40.5999V37.0673C48.9374 36.7646 48.7032 36.5193 48.4143 36.5193H45.0421C44.7532 36.5193 44.519 36.7646 44.519 37.0673V40.5999ZM45.5652 37.6153H47.8912V40.0519H45.5652V37.6153Z" fill="#FFA873"/>
<path d="M31.6436 40.5999C31.6436 40.9026 31.8778 41.1479 32.1666 41.1479H35.5387C35.8277 41.1479 36.0618 40.9026 36.0618 40.5999V37.0673C36.0618 36.7646 35.8277 36.5193 35.5387 36.5193H32.1666C31.8778 36.5193 31.6436 36.7646 31.6436 37.0673V40.5999ZM32.6897 37.6153H35.0156V40.0519H32.6897V37.6153Z" fill="#FFA873"/>
<path d="M25.2075 40.5999C25.2075 40.9026 25.4417 41.1479 25.7306 41.1479H29.1027C29.3916 41.1479 29.6258 40.9026 29.6258 40.5999V37.0673C29.6258 36.7646 29.3916 36.5193 29.1027 36.5193H25.7306C25.4417 36.5193 25.2075 36.7646 25.2075 37.0673V40.5999ZM26.2537 37.6153H28.5796V40.0519H26.2537V37.6153Z" fill="#FFA873"/>
<path d="M38.0815 40.5999C38.0815 40.9026 38.3157 41.1479 38.6046 41.1479H41.9767C42.2657 41.1479 42.4998 40.9026 42.4998 40.5999V37.0673C42.4998 36.7646 42.2657 36.5193 41.9767 36.5193H38.6046C38.3157 36.5193 38.0815 36.7646 38.0815 37.0673V40.5999ZM39.1277 37.6153H41.4536V40.0519H39.1277V37.6153Z" fill="#FFA873"/>
</svg>
