<svg width="68" height="68" viewBox="0 0 68 68" fill="none" xmlns="http://www.w3.org/2000/svg">
<rect width="68" height="68" rx="5" fill="#EEEEFB"/>
<path d="M51.7773 33.709C51.4835 33.709 51.2454 33.9543 51.2454 34.257V47.8933C51.2454 48.5423 50.7329 49.0703 50.1031 49.0703H18.2061C17.5762 49.0703 17.0637 48.5423 17.0637 47.8933V45.7243C17.0637 45.4217 16.8256 45.1763 16.5319 45.1763C16.2381 45.1763 16 45.4217 16 45.7243V47.8933C16 49.1466 16.9896 50.1662 18.2061 50.1662H50.103C51.3195 50.1662 52.3091 49.1466 52.3091 47.8933V34.257C52.3092 33.9543 52.0711 33.709 51.7773 33.709Z" fill="#202244"/>
<path d="M50.1031 23.0981H49.7156V21.6842H51.0681C51.362 21.6842 51.6 21.4389 51.6 21.1363C51.6 20.8336 51.362 20.5883 51.0681 20.5883H49.7156V20.0403C49.7156 19.7376 49.4775 19.4923 49.1837 19.4923C48.8899 19.4923 48.6518 19.7376 48.6518 20.0403V20.5883H44.9721V20.0403C44.9721 19.7376 44.734 19.4923 44.4402 19.4923C44.1464 19.4923 43.9084 19.7376 43.9084 20.0403V20.5883H40.2286V20.0403C40.2286 19.7376 39.9906 19.4923 39.6968 19.4923C39.403 19.4923 39.1649 19.7376 39.1649 20.0403V20.5883H37.1524C36.9 19.1194 35.652 18 34.1549 18C32.6578 18 31.4097 19.1193 31.1573 20.5883H29.1441V20.0403C29.1441 19.7376 28.906 19.4923 28.6123 19.4923C28.3185 19.4923 28.0804 19.7376 28.0804 20.0403V20.5883H24.4007V20.0403C24.4007 19.7376 24.1625 19.4923 23.8688 19.4923C23.5751 19.4923 23.3369 19.7376 23.3369 20.0403V20.5883H19.6574V20.0403C19.6574 19.7376 19.4192 19.4923 19.1255 19.4923C18.8318 19.4923 18.5936 19.7376 18.5936 20.0403V20.5883H17.241C16.9473 20.5883 16.7092 20.8336 16.7092 21.1363C16.7092 21.4389 16.9473 21.6842 17.241 21.6842H18.5936V23.0981H18.2061C16.9896 23.0981 16 24.1177 16 25.3711V43.1946C16 43.4973 16.2381 43.7426 16.5319 43.7426C16.8256 43.7426 17.0637 43.4973 17.0637 43.1946V28.7241H22.2813C22.5751 28.7241 22.8132 28.4787 22.8132 28.1761C22.8132 27.8735 22.5751 27.6281 22.2813 27.6281H17.0637V25.3711C17.0637 24.7221 17.5762 24.194 18.2061 24.194H18.5936V24.742C18.5936 25.0447 18.8317 25.29 19.1254 25.29C19.4192 25.29 19.6573 25.0447 19.6573 24.742V24.194H23.337V24.742C23.337 25.0447 23.5751 25.29 23.8689 25.29C24.1626 25.29 24.4008 25.0447 24.4008 24.742V24.194H28.0805V24.742C28.0805 25.0447 28.3186 25.29 28.6123 25.29C28.9061 25.29 29.1442 25.0447 29.1442 24.742V24.194H32.1145C32.6709 24.7108 33.402 25.0032 34.1549 25.0032C34.9078 25.0032 35.6389 24.7108 36.1953 24.194H39.1648V24.742C39.1648 25.0447 39.4029 25.29 39.6967 25.29C39.9905 25.29 40.2286 25.0447 40.2286 24.742V24.194H43.9083V24.742C43.9083 25.0447 44.1464 25.29 44.4402 25.29C44.734 25.29 44.972 25.0447 44.972 24.742V24.194H48.6517V24.742C48.6517 25.0447 48.8898 25.29 49.1836 25.29C49.4774 25.29 49.7155 25.0447 49.7155 24.742V24.194H50.103C50.7329 24.194 51.2454 24.7221 51.2454 25.3711V27.6281H24.7216C24.4278 27.6281 24.1897 27.8735 24.1897 28.1761C24.1897 28.4787 24.4278 28.7241 24.7216 28.7241H51.2454V31.7139C51.2454 32.0166 51.4835 32.2619 51.7773 32.2619C52.0711 32.2619 52.3092 32.0166 52.3092 31.7139V25.3711C52.3092 24.1177 51.3195 23.0981 50.1031 23.0981V23.0981ZM19.6574 23.0981V21.6842H23.3371V23.0981H19.6574ZM24.4008 23.0981V21.6842H28.0805V23.0981H24.4008ZM35.9794 23.0981C35.8333 23.0981 35.6936 23.16 35.5932 23.2693C35.2152 23.6807 34.7045 23.9072 34.1549 23.9072C33.6054 23.9072 33.0947 23.6806 32.7167 23.2693C32.6162 23.16 32.4766 23.0981 32.3305 23.0981H29.1443V21.6842H31.6428C31.9365 21.6842 32.1747 21.4389 32.1747 21.1363C32.1747 20.0113 33.063 19.096 34.1549 19.096C35.2468 19.096 36.1352 20.0112 36.1352 21.1363C36.1352 21.4389 36.3733 21.6842 36.6671 21.6842H39.165V23.0981H35.9794ZM40.2286 23.0981V21.6842H43.9084V23.0981H40.2286ZM44.9721 23.0981V21.6842H48.6518V23.0981H44.9721Z" fill="#202244"/>
<path d="M19.3507 35.142H22.7795C23.0732 35.142 23.3113 34.8967 23.3113 34.5941V31.0614C23.3113 30.7588 23.0732 30.5134 22.7795 30.5134H19.3507C19.057 30.5134 18.8188 30.7588 18.8188 31.0614V34.5941C18.8188 34.8967 19.0569 35.142 19.3507 35.142ZM19.8826 31.6094H22.2476V34.0461H19.8826V31.6094Z" fill="#202244"/>
<path d="M45.5309 35.142H48.9597C49.2535 35.142 49.4916 34.8967 49.4916 34.5941V31.0614C49.4916 30.7588 49.2535 30.5134 48.9597 30.5134H45.5309C45.2371 30.5134 44.999 30.7588 44.999 31.0614V34.5941C44.999 34.8967 45.2371 35.142 45.5309 35.142ZM46.0628 31.6094H48.4278V34.0461H46.0628V31.6094Z" fill="#202244"/>
<path d="M32.4391 35.142H35.8678C36.1616 35.142 36.3997 34.8967 36.3997 34.5941V31.0614C36.3997 30.7588 36.1616 30.5134 35.8678 30.5134H32.4391C32.1454 30.5134 31.9072 30.7588 31.9072 31.0614V34.5941C31.9072 34.8967 32.1454 35.142 32.4391 35.142V35.142ZM32.971 31.6094H35.336V34.0461H32.971V31.6094Z" fill="#202244"/>
<path d="M25.8952 35.142H29.3239C29.6176 35.142 29.8558 34.8967 29.8558 34.5941V31.0614C29.8558 30.7588 29.6176 30.5134 29.3239 30.5134H25.8952C25.6014 30.5134 25.3633 30.7588 25.3633 31.0614V34.5941C25.3633 34.8967 25.6014 35.142 25.8952 35.142ZM26.427 31.6094H28.792V34.0461H26.427V31.6094Z" fill="#202244"/>
<path d="M38.9855 35.142H42.4142C42.708 35.142 42.9461 34.8967 42.9461 34.5941V31.0614C42.9461 30.7588 42.708 30.5134 42.4142 30.5134H38.9855C38.6917 30.5134 38.4536 30.7588 38.4536 31.0614V34.5941C38.4536 34.8967 38.6918 35.142 38.9855 35.142ZM39.5174 31.6094H41.8823V34.0461H39.5174V31.6094Z" fill="#202244"/>
<path d="M18.8179 46.6055C18.8179 46.9082 19.056 47.1535 19.3497 47.1535H22.7785C23.0722 47.1535 23.3104 46.9082 23.3104 46.6055V43.0729C23.3104 42.7703 23.0722 42.5249 22.7785 42.5249H19.3497C19.056 42.5249 18.8179 42.7703 18.8179 43.0729V46.6055ZM19.8816 43.6209H22.2466V46.0575H19.8816V43.6209Z" fill="#202244"/>
<path d="M44.998 46.6055C44.998 46.9082 45.2361 47.1535 45.5299 47.1535H48.9587C49.2525 47.1535 49.4906 46.9082 49.4906 46.6055V43.0729C49.4906 42.7703 49.2525 42.5249 48.9587 42.5249H45.5299C45.2361 42.5249 44.998 42.7703 44.998 43.0729V46.6055ZM46.0618 43.6209H48.4269V46.0575H46.0618V43.6209Z" fill="#202244"/>
<path d="M31.9062 46.6055C31.9062 46.9082 32.1444 47.1535 32.4381 47.1535H35.8669C36.1607 47.1535 36.3987 46.9082 36.3987 46.6055V43.0729C36.3987 42.7703 36.1607 42.5249 35.8669 42.5249H32.4381C32.1444 42.5249 31.9062 42.7703 31.9062 43.0729V46.6055ZM32.97 43.6209H35.335V46.0575H32.97V43.6209Z" fill="#202244"/>
<path d="M25.3623 46.6055C25.3623 46.9082 25.6004 47.1535 25.8942 47.1535H29.3229C29.6166 47.1535 29.8548 46.9082 29.8548 46.6055V43.0729C29.8548 42.7703 29.6166 42.5249 29.3229 42.5249H25.8942C25.6004 42.5249 25.3623 42.7703 25.3623 43.0729V46.6055ZM26.4261 43.6209H28.791V46.0575H26.4261V43.6209Z" fill="#202244"/>
<path d="M38.4526 46.6055C38.4526 46.9082 38.6907 47.1535 38.9845 47.1535H42.4132C42.7071 47.1535 42.9451 46.9082 42.9451 46.6055V43.0729C42.9451 42.7703 42.7071 42.5249 42.4132 42.5249H38.9845C38.6907 42.5249 38.4526 42.7703 38.4526 43.0729V46.6055ZM39.5164 43.6209H41.8814V46.0575H39.5164V43.6209Z" fill="#202244"/>
<path d="M18.8179 40.5999C18.8179 40.9026 19.056 41.1479 19.3497 41.1479H22.7785C23.0722 41.1479 23.3104 40.9026 23.3104 40.5999V37.0673C23.3104 36.7646 23.0722 36.5193 22.7785 36.5193H19.3497C19.056 36.5193 18.8179 36.7646 18.8179 37.0673V40.5999ZM19.8816 37.6153H22.2466V40.0519H19.8816V37.6153Z" fill="#202244"/>
<path d="M44.998 40.5999C44.998 40.9026 45.2361 41.1479 45.5299 41.1479H48.9587C49.2525 41.1479 49.4906 40.9026 49.4906 40.5999V37.0673C49.4906 36.7646 49.2525 36.5193 48.9587 36.5193H45.5299C45.2361 36.5193 44.998 36.7646 44.998 37.0673V40.5999ZM46.0618 37.6153H48.4269V40.0519H46.0618V37.6153Z" fill="#202244"/>
<path d="M31.9062 40.5999C31.9062 40.9026 32.1444 41.1479 32.4381 41.1479H35.8669C36.1607 41.1479 36.3987 40.9026 36.3987 40.5999V37.0673C36.3987 36.7646 36.1607 36.5193 35.8669 36.5193H32.4381C32.1444 36.5193 31.9062 36.7646 31.9062 37.0673V40.5999ZM32.97 37.6153H35.335V40.0519H32.97V37.6153Z" fill="#202244"/>
<path d="M25.3623 40.5999C25.3623 40.9026 25.6004 41.1479 25.8942 41.1479H29.3229C29.6166 41.1479 29.8548 40.9026 29.8548 40.5999V37.0673C29.8548 36.7646 29.6166 36.5193 29.3229 36.5193H25.8942C25.6004 36.5193 25.3623 36.7646 25.3623 37.0673V40.5999ZM26.4261 37.6153H28.791V40.0519H26.4261V37.6153Z" fill="#202244"/>
<path d="M38.4526 40.5999C38.4526 40.9026 38.6907 41.1479 38.9845 41.1479H42.4132C42.7071 41.1479 42.9451 40.9026 42.9451 40.5999V37.0673C42.9451 36.7646 42.7071 36.5193 42.4132 36.5193H38.9845C38.6907 36.5193 38.4526 36.7646 38.4526 37.0673V40.5999ZM39.5164 37.6153H41.8814V40.0519H39.5164V37.6153Z" fill="#202244"/>
</svg>
