<svg width="57" height="42" viewBox="0 0 57 42" fill="none" xmlns="http://www.w3.org/2000/svg">
<path d="M1 21C1 11.5719 1 6.85786 3.92893 3.92893C6.85786 1 11.5719 1 21 1H36C45.4281 1 50.1421 1 53.0711 3.92893C56 6.85786 56 11.5719 56 21C56 30.4281 56 35.1421 53.0711 38.0711C50.1421 41 45.4281 41 36 41H21C11.5719 41 6.85786 41 3.92893 38.0711C1 35.1421 1 30.4281 1 21Z" fill="white" stroke="url(#paint0_linear_151_508)"/>
<path d="M6 21.0002C6 15.0562 6 12.0842 7.22321 9.8441C8.14195 8.16156 9.52496 6.77855 11.2075 5.85981C13.4477 4.6366 16.4196 4.6366 22.3636 4.6366H34.6364C40.5804 4.6366 43.5523 4.6366 45.7925 5.85981C47.475 6.77855 48.858 8.16156 49.7768 9.8441C51 12.0842 51 15.0562 51 21.0002C51 26.9442 51 29.9162 49.7768 32.1564C48.858 33.8389 47.475 35.2219 45.7925 36.1407C43.5523 37.3639 40.5804 37.3639 34.6364 37.3639H22.3636C16.4196 37.3639 13.4477 37.3639 11.2075 36.1407C9.52496 35.2219 8.14195 33.8389 7.22321 32.1564C6 29.9162 6 26.9442 6 21.0002Z" fill="url(#paint1_linear_151_508)"/>
<path fill-rule="evenodd" clip-rule="evenodd" d="M31.3558 14.0965C31.1328 14.0732 30.9087 14.1212 30.7304 14.2244C30.5472 14.329 30.4326 14.4802 30.4077 14.6495C30.355 14.9919 30.6946 15.3015 31.1646 15.34C34.4063 15.6031 36.9259 17.4396 37.2904 19.8045C37.3392 20.1214 37.7047 20.3605 38.1409 20.3605C38.1738 20.3605 38.2057 20.3591 38.2385 20.3562C38.4666 20.338 38.6697 20.2559 38.8132 20.1251C38.9556 19.9942 39.0203 19.8314 38.9944 19.665C38.5403 16.7143 35.4002 14.4242 31.3558 14.0965ZM31.4181 16.6288C30.9421 16.5649 30.5048 16.7858 30.4142 17.1238C30.3236 17.4617 30.6283 17.7917 31.0914 17.8578C32.4857 18.0555 33.5623 18.8404 33.8351 19.8579V19.8586C33.9128 20.1515 34.2674 20.3645 34.6757 20.3645C34.7305 20.3645 34.7852 20.3608 34.841 20.3536C35.3041 20.286 35.6088 19.9567 35.5182 19.6181C35.1109 18.0984 33.5025 16.9246 31.4181 16.6288ZM33.0001 23.6111C33.4515 23.4218 33.9615 23.2079 34.6047 23.3074C35.1873 23.3968 37.1731 24.5691 37.7169 24.9754C38.0734 25.2414 38.2716 25.5161 38.3025 25.7908C38.3562 26.8686 36.3425 28.0991 35.976 28.2524C35.489 28.5075 34.9224 28.6362 34.286 28.6362C33.6357 28.6362 32.9106 28.5017 32.1199 28.2335C27.8296 26.9311 21.2755 22.2587 19.5427 19.1627C18.8236 18.01 18.8186 17.0594 19.5307 16.345C19.8145 16.0099 21.4329 14.6094 22.8819 14.6538C23.2673 14.6777 23.6418 14.8216 24.0093 15.0833C24.565 15.4794 26.1365 16.9278 26.258 17.353C26.3925 17.8254 26.0977 18.2011 25.8358 18.5311C25.7799 18.602 25.7046 18.6862 25.6222 18.7784C25.3092 19.1284 24.8926 19.5942 25.04 19.8916C26.0967 21.7783 28.5376 23.4245 31.133 24.1977C31.5343 24.3038 32.1745 23.9987 32.6542 23.7701C32.7791 23.7105 32.8932 23.6562 32.9893 23.6156L33.0001 23.6111Z" fill="#1376F8"/>
<defs>
<linearGradient id="paint0_linear_151_508" x1="1" y1="1" x2="39.0541" y2="53.3243" gradientUnits="userSpaceOnUse">
<stop stop-color="#1376F8"/>
<stop offset="1" stop-color="#25B4F8"/>
</linearGradient>
<linearGradient id="paint1_linear_151_508" x1="28.5" y1="4.6366" x2="28.5" y2="37.3639" gradientUnits="userSpaceOnUse">
<stop stop-color="#E6F6FE"/>
<stop offset="1" stop-color="#E6F6FE" stop-opacity="0"/>
</linearGradient>
</defs>
</svg>
