<svg width="22" height="24" viewBox="0 0 22 24" fill="none" xmlns="http://www.w3.org/2000/svg">
<path d="M0.0958305 1.12952C0.0395254 1.33014 0 1.54539 0 1.79214V22.1066C0 22.35 0.0380339 22.5641 0.0932203 22.7621L11.4206 11.9603L0.0958305 1.12952Z" fill="#48A0DC"/>
<path d="M2.61606 0.34056C2.0888 0.0169345 1.56901 -0.0640655 1.13013 0.0476845L12.5049 10.9264L15.8414 7.74531L2.61606 0.34056Z" fill="#88C057"/>
<path d="M20.7172 10.4753L17.1867 8.49866L13.5713 11.9464L17.2546 15.4699L20.69 13.5713C22.3653 12.6102 21.7534 11.0614 20.7172 10.4753Z" fill="#FFCC66"/>
<path d="M12.4866 12.98L1.09766 23.8392C1.54325 23.9649 2.07498 23.8902 2.61566 23.5584L15.8824 16.2275L12.4866 12.98Z" fill="#ED7161"/>
</svg>
