<svg width="82" height="70" viewBox="0 0 82 70" fill="none" xmlns="http://www.w3.org/2000/svg">
<ellipse cx="41.4803" cy="34.9381" rx="40.5198" ry="34.9381" fill="#39B0FF"/>
<path d="M40.5448 19.1204C40.87 18.2573 42.091 18.2573 42.4163 19.1204L46.0018 28.6354C46.1486 29.0249 46.5213 29.2828 46.9376 29.2828H58.1865C59.1906 29.2828 59.5683 30.5971 58.7174 31.1302L49.8842 36.6638C49.4809 36.9165 49.3115 37.4185 49.4794 37.8639L52.9109 46.9702C53.2485 47.866 52.2555 48.6785 51.4442 48.1702L42.0114 42.261C41.6867 42.0575 41.2743 42.0575 40.9496 42.261L31.5168 48.1702C30.7055 48.6785 29.7126 47.866 30.0502 46.9702L33.4817 37.8639C33.6495 37.4185 33.4802 36.9165 33.0768 36.6638L24.2437 31.1302C23.3927 30.5971 23.7704 29.2828 24.7746 29.2828H36.0235C36.4397 29.2828 36.8125 29.0249 36.9592 28.6354L40.5448 19.1204Z" fill="white"/>
</svg>
