<svg width="70" height="70" viewBox="0 0 70 70" fill="none" xmlns="http://www.w3.org/2000/svg">
<rect width="70" height="70" rx="4" fill="#3267FF"/>
<path d="M56.0202 38.164C55.5597 37.8932 55.034 37.75 54.5007 37.75C53.4432 37.75 52.4525 38.3162 51.914 39.229L50.5588 41.533C50.1942 40.0855 49.325 38.839 48.074 38.0057C47.8985 37.8888 47.7125 37.7935 47.5272 37.6968C49.0093 36.7683 50 35.125 50 33.25C50 30.589 48.008 28.3892 45.4378 28.0502C46.9318 26.1033 47.75 23.749 47.75 21.25C47.75 15.0468 42.7033 10 36.5 10C30.2967 10 25.25 15.0468 25.25 21.25C25.25 21.8298 25.2995 22.4088 25.3895 22.9833C24.8675 22.8348 24.3193 22.75 23.75 22.75C20.4418 22.75 17.75 25.4418 17.75 28.75C17.75 30.8748 18.863 32.74 20.5333 33.8065C16.7353 35.14 14 38.752 14 43V49C14 49.549 14.159 50.0568 14.417 50.5H14C12.3455 50.5 11 51.8455 11 53.5C11 55.1545 12.3455 56.5 14 56.5H43.1398C46.58 56.5 49.7997 54.658 51.5443 51.6932L57.0875 42.2688C57.9238 40.8423 57.4453 39.0002 56.0202 38.164ZM49.1608 42.118C49.2718 42.6707 49.2792 43.2295 49.1787 43.8085L49.1667 43.8993L46.3715 48.6512C45.7017 49.792 44.462 50.5 43.1398 50.5H36.5C35.8797 50.5 35.375 49.9953 35.375 49.375C35.375 48.7547 35.8797 48.25 36.5 48.25H42.1887C43.1052 48.25 43.967 47.7617 44.4395 46.9757L46.1427 44.1362L44.8565 43.3645L43.1532 46.204C42.9515 46.5407 42.581 46.75 42.1887 46.75H36.8405L41.0045 40.5033C41.8377 39.2493 43.2373 38.5 44.7477 38.5C45.638 38.5 46.5005 38.761 47.2423 39.2552C48.2428 39.9212 48.9245 40.9375 49.1608 42.118ZM29.5895 30.1082C31.5583 31.6525 33.959 32.5 36.5 32.5C37.5755 32.5 38.627 32.3298 39.65 32.0275C39.5555 32.4205 39.5 32.8285 39.5 33.25C39.5 35.1182 40.484 36.7577 41.9585 37.6885C41.0833 38.1482 40.3212 38.8218 39.7557 39.6722L35.5378 46H35.2273L33.5 44.8488V43C33.5 38.752 30.7647 35.14 26.9667 33.8065C28.2695 32.9748 29.2288 31.657 29.5895 30.1082ZM32.5228 46H19.9992L22.313 44.2653C23.4012 43.4492 24.749 43 26.1088 43C27.3612 43 28.574 43.3675 29.6165 44.062L32.5228 46ZM48.5 33.25C48.5 35.3177 46.8177 37 44.75 37C42.6823 37 41 35.3177 41 33.25C41 31.1823 42.6823 29.5 44.75 29.5C46.8177 29.5 48.5 31.1823 48.5 33.25ZM26.75 21.25C26.75 15.874 31.124 11.5 36.5 11.5C41.876 11.5 46.25 15.874 46.25 21.25C46.25 23.8923 45.2023 26.353 43.3078 28.2062C42.2 28.5235 41.2438 29.1963 40.5658 30.0925C39.2728 30.6903 37.907 31 36.5 31C33.947 31 31.5553 30.0168 29.7245 28.2407C29.567 26.38 28.5605 24.7577 27.0905 23.7685C26.8685 22.942 26.75 22.0968 26.75 21.25ZM19.25 28.75C19.25 26.2682 21.2682 24.25 23.75 24.25C26.2318 24.25 28.25 26.2682 28.25 28.75C28.25 31.2318 26.2318 33.25 23.75 33.25C21.2682 33.25 19.25 31.2318 19.25 28.75ZM23.75 34.75C28.2987 34.75 32 38.4513 32 43V43.849L30.4482 42.814C29.159 41.9545 27.6583 41.5 26.1088 41.5C24.4272 41.5 22.7593 42.0557 21.4137 43.0645L17.5002 46H17C16.451 46 15.9433 46.159 15.5 46.417V43C15.5 38.4513 19.2013 34.75 23.75 34.75ZM15.5 49C15.5 48.1727 16.1727 47.5 17 47.5H34.6685C34.1802 47.977 33.875 48.64 33.875 49.375C33.875 49.7793 33.9748 50.158 34.1383 50.5H16.9963C16.1712 50.4977 15.5 49.8257 15.5 49ZM55.7937 41.509L50.2505 50.9328C48.7745 53.4415 46.0498 55 43.1398 55H14C13.1727 55 12.5 54.3273 12.5 53.5C12.5 52.6727 13.1727 52 14 52H16.9963H17H33.5H36.5H43.1398H43.2147V51.9948C45.0387 51.9685 46.739 50.986 47.666 49.4118L53.2077 39.9902C53.6113 39.3032 54.5705 39.0527 55.262 39.4578C55.973 39.8755 56.2115 40.7965 55.7937 41.509Z" fill="#FEFEFF"/>
</svg>
