<svg width="38" height="38" viewBox="0 0 38 38" fill="none" xmlns="http://www.w3.org/2000/svg">
<rect opacity="0.25" x="0.796875" y="0.75" width="36.3647" height="36.3646" rx="18.1823" stroke="white" stroke-width="1.5"/>
<path fill-rule="evenodd" clip-rule="evenodd" d="M18.797 16.4334L18.8243 16.8953L18.3683 16.8387C16.7085 16.6219 15.2585 15.8866 14.0273 14.6516L13.4254 14.0388L13.2704 14.4913C12.9421 15.5001 13.1518 16.5653 13.8358 17.2818C14.2006 17.6778 14.1185 17.7343 13.4892 17.4986C13.2704 17.4232 13.0788 17.3667 13.0606 17.3949C12.9968 17.4609 13.2156 18.3188 13.3889 18.6582C13.626 19.1295 14.1094 19.5915 14.6383 19.8649L15.0852 20.0817L14.5563 20.0911C14.0455 20.0911 14.0273 20.1006 14.082 20.2985C14.2644 20.9113 14.9849 21.5618 15.7874 21.8446L16.3529 22.0426L15.8604 22.3442C15.1308 22.7779 14.2735 23.023 13.4163 23.0419C13.0059 23.0513 12.6685 23.089 12.6685 23.1173C12.6685 23.2115 13.7811 23.7395 14.4286 23.9469C16.3711 24.5596 18.6784 24.2957 20.4112 23.2493C21.6423 22.5045 22.8735 21.0244 23.448 19.5915C23.7581 18.8279 24.0682 17.4326 24.0682 16.7633C24.0682 16.3297 24.0956 16.2731 24.6063 15.7546C24.9072 15.4529 25.1899 15.123 25.2446 15.0287C25.3358 14.8496 25.3267 14.8496 24.8616 15.0098C24.0864 15.2927 23.977 15.255 24.36 14.8307C24.6427 14.5291 24.9802 13.9823 24.9802 13.822C24.9802 13.7937 24.8434 13.8409 24.6883 13.9257C24.5242 14.02 24.1594 14.1614 23.8858 14.2462L23.3933 14.4065L22.9465 14.0954C22.7002 13.9257 22.3537 13.7372 22.1713 13.6806C21.7062 13.5486 20.9948 13.5675 20.5753 13.7183C19.4353 14.1425 18.7149 15.2361 18.797 16.4334Z" fill="white"/>
</svg>
